<svg width="512" height="107" viewBox="0 0 512 107" fill="none" xmlns="http://www.w3.org/2000/svg">
<path d="M10.3125 84.8125H4.8125V40.625H10.3125V45.3125H10.5625C10.9375 44.7292 11.5312 44.1042 12.3438 43.4375C13.0729 42.8542 13.8542 42.3229 14.6875 41.8438C15.5833 41.3438 16.75 40.9167 18.1875 40.5625C19.6458 40.1875 21.1146 40 22.5938 40C27.3229 40 31.2812 41.5 34.4688 44.5C37.6354 47.5417 39.2188 51.4792 39.2188 56.3125C39.2188 61.1875 37.6354 65.125 34.4688 68.125C31.2812 71.125 27.3229 72.625 22.5938 72.625C19.3438 72.625 16.6979 72 14.6562 70.75C12.8646 69.6458 11.6458 68.6979 11 67.9062L10.5625 67.3125H10.3125V84.8125ZM30.4375 64.3438C32.5417 62.2396 33.5938 59.5625 33.5938 56.3125C33.5938 53.1042 32.5417 50.4271 30.4375 48.2812C28.2917 46.1771 25.4583 45.125 21.9375 45.125C18.3958 45.125 15.5729 46.1771 13.4688 48.2812C11.3646 50.4271 10.3125 53.1042 10.3125 56.3125C10.3125 59.6458 11.3958 62.3438 13.5625 64.4062C15.7083 66.4896 18.5 67.5312 21.9375 67.5312C25.4792 67.5312 28.3125 66.4688 30.4375 64.3438ZM53.6425 27.1875H59.1425V72H53.6425V27.1875ZM73.5663 63.2188C73.5663 60.0104 74.9308 57.6354 77.66 56.0938C80.3683 54.5729 83.8475 53.8125 88.0975 53.8125C90.2642 53.8125 92.2642 54.0729 94.0975 54.5938C96.0142 55.1354 97.3579 55.6458 98.1288 56.125L99.3475 56.9062V51.9688C99.3475 49.8438 98.5663 48.1771 97.0038 46.9688C95.4413 45.7396 93.0871 45.125 89.9413 45.125C83.6704 45.125 80.535 46.8333 80.535 50.25H75.035C75.0558 46.7917 76.4621 44.2188 79.2538 42.5312C82.0246 40.8438 85.5871 40 89.9413 40C94.3163 40 97.8892 41.0208 100.66 43.0625C103.431 45.125 104.827 48.0938 104.848 51.9688V63.375C104.848 64.9583 105.056 66.0625 105.473 66.6875C105.889 67.2917 106.577 67.5938 107.535 67.5938C108.368 67.5938 108.92 67.4792 109.191 67.25L109.316 67.1875V72.125C108.67 72.4583 107.733 72.625 106.504 72.625C104.42 72.625 102.879 72.1771 101.879 71.2812C101.087 70.6146 100.504 69.9167 100.129 69.1875L99.9725 68.8125H99.7225C99.2017 69.3333 98.6704 69.7708 98.1288 70.125C97.4829 70.5625 96.7746 70.9479 96.0038 71.2812C93.9621 72.1771 91.4725 72.625 88.535 72.625C84.0975 72.625 80.4933 71.8646 77.7225 70.3438C74.9517 68.8438 73.5663 66.4688 73.5663 63.2188ZM89.3475 58.9375C82.5767 58.9375 79.1913 60.3646 79.1913 63.2188C79.1913 66.0938 82.5767 67.5312 89.3475 67.5312C91.3475 67.5312 93.1704 67.3125 94.8163 66.875C96.4413 66.4792 97.5558 66.1042 98.16 65.75C98.7225 65.4583 99.1183 65.1979 99.3475 64.9688V61.375C99.1183 61.1458 98.7225 60.8854 98.16 60.5938C97.4517 60.2604 96.3475 59.9062 94.8475 59.5312C93.2433 59.1354 91.41 58.9375 89.3475 58.9375ZM152.959 72H147.459V55.8125C147.459 52.1458 146.532 49.4479 144.677 47.7188C142.823 45.9896 140.334 45.125 137.209 45.125C133.917 45.125 131.396 46.1042 129.646 48.0625C127.875 50.0208 126.99 52.6042 126.99 55.8125V72H121.49V40.625H126.99V45.4375H127.302C127.74 44.7292 128.25 44.0938 128.834 43.5312C129.521 42.9062 130.24 42.3542 130.99 41.875C131.844 41.3542 132.98 40.9167 134.396 40.5625C135.813 40.1875 137.292 40 138.834 40C142.875 40 146.25 41.2083 148.959 43.625C151.625 46.0625 152.959 49.6979 152.959 54.5312V72ZM201.445 56.3125L201.258 58.9375H172.914C172.914 60.7292 173.976 62.6042 176.101 64.5625C178.205 66.5417 181.028 67.5312 184.57 67.5312C187.174 67.5312 189.31 67.0417 190.976 66.0625C192.351 65.2292 193.31 64.4792 193.851 63.8125L194.101 63.375H200.57C200.445 63.6875 200.31 64.0104 200.164 64.3438C199.893 64.8229 199.383 65.5625 198.633 66.5625C197.82 67.625 196.872 68.5729 195.789 69.4062C194.747 70.2188 193.216 70.9583 191.195 71.625C189.278 72.2917 187.07 72.625 184.57 72.625C179.383 72.625 175.174 71.1458 171.945 68.1875C168.674 65.2292 167.039 61.2708 167.039 56.3125C167.039 51.3958 168.664 47.4479 171.914 44.4688C175.143 41.4896 179.258 40 184.258 40C189.216 40 193.33 41.4896 196.601 44.4688C199.83 47.4479 201.445 51.3958 201.445 56.3125ZM192.57 48.0938C190.487 46.1146 187.716 45.125 184.258 45.125C180.758 45.125 177.987 46.1146 175.945 48.0938C173.883 50.0729 172.851 52.0208 172.851 53.9375H195.633C195.633 52.0208 194.612 50.0729 192.57 48.0938ZM235.712 45.625H224.087V59.8438C224.087 65.1771 226.431 67.8438 231.119 67.8438C232.119 67.8438 233.087 67.7292 234.025 67.5C234.983 67.2708 235.681 67.0208 236.119 66.75L236.681 66.375V71.375C235.015 72.2292 232.952 72.6458 230.494 72.625C226.806 72.625 223.91 71.6146 221.806 69.5938C219.66 67.5729 218.587 64.5521 218.587 60.5312V45.625H213.337V40.625H218.587V33.5938H224.087V40.625H235.712V45.625ZM247.199 63.2188C247.199 60.0104 248.563 57.6354 251.292 56.0938C254.001 54.5729 257.48 53.8125 261.73 53.8125C263.897 53.8125 265.897 54.0729 267.73 54.5938C269.647 55.1354 270.99 55.6458 271.761 56.125L272.98 56.9062V51.9688C272.98 49.8438 272.199 48.1771 270.636 46.9688C269.074 45.7396 266.72 45.125 263.574 45.125C257.303 45.125 254.167 46.8333 254.167 50.25H248.667C248.688 46.7917 250.095 44.2188 252.886 42.5312C255.657 40.8438 259.22 40 263.574 40C267.949 40 271.522 41.0208 274.292 43.0625C277.063 45.125 278.459 48.0938 278.48 51.9688V63.375C278.48 64.9583 278.688 66.0625 279.105 66.6875C279.522 67.2917 280.209 67.5938 281.167 67.5938C282.001 67.5938 282.553 67.4792 282.824 67.25L282.949 67.1875V72.125C282.303 72.4583 281.365 72.625 280.136 72.625C278.053 72.625 276.511 72.1771 275.511 71.2812C274.72 70.6146 274.136 69.9167 273.761 69.1875L273.605 68.8125H273.355C272.834 69.3333 272.303 69.7708 271.761 70.125C271.115 70.5625 270.407 70.9479 269.636 71.2812C267.595 72.1771 265.105 72.625 262.167 72.625C257.73 72.625 254.126 71.8646 251.355 70.3438C248.584 68.8438 247.199 66.4688 247.199 63.2188ZM262.98 58.9375C256.209 58.9375 252.824 60.3646 252.824 63.2188C252.824 66.0938 256.209 67.5312 262.98 67.5312C264.98 67.5312 266.803 67.3125 268.449 66.875C270.074 66.4792 271.188 66.1042 271.792 65.75C272.355 65.4583 272.751 65.1979 272.98 64.9688V61.375C272.751 61.1458 272.355 60.8854 271.792 60.5938C271.084 60.2604 269.98 59.9062 268.48 59.5312C266.876 59.1354 265.042 58.9375 262.98 58.9375ZM312.466 40C313.716 40 314.82 40.125 315.779 40.375L316.216 40.4375V46.4688C315.029 46.0521 313.456 45.8333 311.497 45.8125C308.122 45.8125 305.466 46.8854 303.529 49.0312C301.591 51.1771 300.622 53.8646 300.622 57.0938V72H295.122V40.625H300.622V46.7188H300.935C301.247 46.0521 301.758 45.2708 302.466 44.375C303.112 43.5833 303.831 42.8958 304.622 42.3125C305.518 41.6875 306.664 41.1458 308.06 40.6875C309.477 40.2292 310.945 40 312.466 40ZM329.015 40.625H334.515V72H329.015V40.625ZM334.234 27.4062C334.838 28.0104 335.14 28.75 335.14 29.625C335.14 30.5 334.838 31.2396 334.234 31.8438C333.63 32.4271 332.807 32.7188 331.765 32.7188C330.723 32.7188 329.9 32.4271 329.296 31.8438C328.671 31.2396 328.359 30.5 328.359 29.625C328.359 28.75 328.671 28.0104 329.296 27.4062C329.921 26.8438 330.744 26.5625 331.765 26.5625C332.786 26.5625 333.609 26.8438 334.234 27.4062ZM350.22 40.625H355.72V56.8438C355.72 60.5104 356.647 63.2083 358.501 64.9375C360.355 66.6667 362.835 67.5312 365.939 67.5312C369.21 67.5312 371.741 66.5417 373.533 64.5625C375.303 62.6042 376.189 60.0312 376.189 56.8438V40.625H381.689V72H376.189V67.1875H375.876C375.46 67.8542 374.949 68.4896 374.345 69.0938C373.658 69.7396 372.939 70.2917 372.189 70.75C371.335 71.2917 370.199 71.7396 368.783 72.0938C367.366 72.4479 365.887 72.625 364.345 72.625C360.262 72.625 356.897 71.4062 354.251 68.9688C351.564 66.5729 350.22 62.9583 350.22 58.125V40.625ZM446.362 72H440.862V55.8125C440.862 48.6875 438.154 45.125 432.737 45.125C427.321 45.125 424.612 48.6875 424.612 55.8125V72H419.112V55.8125C419.112 48.6875 416.404 45.125 410.987 45.125C405.571 45.125 402.862 48.6875 402.862 55.8125V72H397.362V40.625H402.862V45.4375H403.175C403.446 44.7083 403.779 44.0729 404.175 43.5312C404.633 42.9062 405.165 42.3542 405.769 41.875C406.456 41.3542 407.394 40.9167 408.581 40.5625C409.79 40.1875 411.123 40 412.581 40C417.185 40 420.519 41.8125 422.581 45.4375H422.956C423.144 44.9167 423.55 44.2812 424.175 43.5312C424.696 42.9062 425.29 42.3542 425.956 41.875C426.706 41.3542 427.717 40.9167 428.987 40.5625C430.258 40.1875 431.612 40 433.05 40C437.362 40 440.654 41.2083 442.925 43.625C445.217 46.0208 446.362 49.6562 446.362 54.5312V72Z" fill="url(#paint0_linear_1281_2667)"/>
<path fill-rule="evenodd" clip-rule="evenodd" d="M390 20.8302C400.736 11.4228 414.801 5.72085 430.197 5.72085C463.899 5.72085 491.219 33.0413 491.219 66.7428C491.219 82.1366 485.519 96.199 476.114 106.935C488.879 95.7499 496.939 79.3272 496.939 61.022C496.939 27.3205 469.619 0 435.917 0C417.61 0 401.185 8.06231 390 20.8302Z" fill="url(#paint1_linear_1281_2667)"/>
<path fill-rule="evenodd" clip-rule="evenodd" d="M485.7 14.4017C492.852 20.0963 498.046 28.3105 499.799 38.0132C503.637 59.251 489.531 79.5782 468.293 83.4154C458.593 85.168 449.083 83.1774 441.247 78.4738C449.748 85.2439 461.015 88.4529 472.55 86.3688C493.788 82.5317 507.894 62.2044 504.056 40.9667C501.972 29.429 495.02 19.9963 485.7 14.4017Z" fill="url(#paint2_linear_1281_2667)"/>
<defs>
<linearGradient id="paint0_linear_1281_2667" x1="443.494" y1="52.1635" x2="13.7457" y2="61.357" gradientUnits="userSpaceOnUse">
<stop stop-color="#9D94E9"/>
<stop offset="0.482292" stop-color="#F2A29A"/>
<stop offset="1" stop-color="#F4DF9C"/>
</linearGradient>
<linearGradient id="paint1_linear_1281_2667" x1="495.16" y1="53" x2="393.214" y2="53.3724" gradientUnits="userSpaceOnUse">
<stop stop-color="#9D94E9"/>
<stop offset="0.482292" stop-color="#F2A29A"/>
<stop offset="1" stop-color="#F4DF9C"/>
</linearGradient>
<linearGradient id="paint2_linear_1281_2667" x1="477.403" y1="84.3339" x2="465.561" y2="20.132" gradientUnits="userSpaceOnUse">
<stop stop-color="#9D94E9"/>
<stop offset="0.482292" stop-color="#F2A29A"/>
<stop offset="1" stop-color="#F4DF9C"/>
</linearGradient>
</defs>
</svg>
